<?xml version="1.0" encoding="utf-8"?>
<!-- Generator: Adobe Illustrator 16.0.0, SVG Export Plug-In . SVG Version: 6.00 Build 0)  -->
<!DOCTYPE svg PUBLIC "-//W3C//DTD SVG 1.1//EN" "http://www.w3.org/Graphics/SVG/1.1/DTD/svg11.dtd">
<svg version="1.1" id="Your_Icon" xmlns="http://www.w3.org/2000/svg" xmlns:xlink="http://www.w3.org/1999/xlink" x="0px" y="0px"
	 width="234.667px" height="75.001px" viewBox="-152.167 12.5 234.667 75.001"
	 enable-background="new -152.167 12.5 234.667 75.001" xml:space="preserve">
<path fill="#FFCE2D" d="M-124.519,16c0-1.104-0.896-2-2-2h-22c-1.104,0-2,0.896-2,2c0,0,0,10,1,19s5,24,5,35c0,5-0.76,9.141-2,11
	c-2,3-1,5,1,5h16c2,0,3-2,1-5c-1.24-1.859-2-6-2-11c0-11,4-26,5-35S-124.519,16-124.519,16z M-128.722,24h-15.591
	c0.138,3.149,0.368,6.833,0.757,10.337c0.341,3.071,1.095,7.096,1.894,11.357c1.473,7.863,3.143,16.774,3.143,24.306
	c0,3-0.454,7.882-1.136,10c-0.614,1.906-2.608,1.354-2.036-0.188c0.019-0.049,0.03-0.117,0.042-0.183
	c0.941-3.298,1.13-7.181,1.13-9.63c0-7.348-1.651-16.16-3.108-23.937c-0.806-4.299-1.566-8.36-1.916-11.505
	c-0.398-3.583-0.634-7.356-0.772-10.558l0,0c-0.106-2.446-0.157-4.561-0.181-6h17.958C-128.565,19.439-128.617,21.554-128.722,24z"
	/>
<path fill="#FFCE2D" d="M-87.519,66c9-2,16-8,16-18c0-8-6.465-21.691-7-23c-0.264-0.642-1-1-2-1s-27,0-28,0s-1.709,0.385-2,1
	c-0.604,1.279-7,15-7,23c0,10,7,16,16,18c3,1,4,3,4,6v2c0,4-3,8-8,8h-1c-1.104,0-2,0.896-2,2s0.896,2,2,2h24c1.104,0,2-0.896,2-2
	s-0.896-2-2-2h-1c-5,0-8-4-8-8v-2C-91.519,69-90.519,67-87.519,66z M-107.841,34c-1.871,4.806-3.678,10.462-3.678,14
	c0,5.494,3.044,8.602,6.33,10.354c1.377,0.733,0.523,2.25-0.812,1.801c-3.721-1.961-7.518-5.566-7.518-12.154
	c0-3.643,1.676-9.138,3.528-14h-0.001c0.841-2.209,1.72-4.287,2.494-6h25.927c0.968,2.206,1.782,4.196,2.477,6H-107.841z"/>
<path fill="#FFCE2D" d="M-25.509,24h-34c-1.104,0-2.125,1.024-2,2.172l5,57.828c0.123,1.129,0.895,2,2,2h24c1.104,0,1.866-0.896,2-2
	l4.983-57.875C-23.402,25.008-24.404,24-25.509,24z M-28.218,34H-54.8c1.33,15.01,4.076,46.005,4.135,46.766
	c0.109,1.418-1.904,1.726-2.094,0.172v-0.002L-57.335,28h29.634L-28.218,34z"/>
<path fill="#FFCE2D" d="M5.495,82c-2,0-3.203-1.986-3-4l5.993-61.814C8.62,15.021,7.599,14,6.495,14h-18
	c-1.104,0-2.125,1.042-2,2.245l6,61.755l0,0c0.184,1.963-1,4-3,4c-1.104,0-2,0.896-2,2s0.896,2,2,2h16c1.104,0,2-0.896,2-2
	S6.599,82,5.495,82z M-3.961,73.113L-9.315,18H4.294l-0.582,6H-6.715c1.524,15.453,4.731,47.986,4.791,48.751
	C-1.819,74.102-3.623,74.424-3.961,73.113z"/>
<path fill="#FFCE2D" d="M70.5,28h-8V18c0-2.209-1.791-4-4-4h-36c-2.209,0-4,1.791-4,4v64c0,2.209,1.791,4,4,4h36
	c2.209,0,4-1.791,4-4v-6h8c5.521,0,10-4.479,10-10V38C80.5,32.477,76.021,28,70.5,28z M56.5,28h-30v51c0,0.553-0.448,1-1,1
	s-1-0.447-1-1V20h32V28z M72.5,66c0,1.104-0.896,2-2,2h-8V36h8c1.104,0,2,0.897,2,2V66z"/>
<image overflow="visible" width="1500" height="1200" xlink:href="../../../savvo/savvo moodboard/savvo_moodboard.jpg"  transform="matrix(0.24 0 0 0.24 -537.1665 -71.5)">
</image>
</svg>
